<?xml version="1.0" encoding="UTF-8"?>
<svg width="10px" height="9px" viewBox="0 0 10 9" version="1.1" xmlns="http://www.w3.org/2000/svg" xmlns:xlink="http://www.w3.org/1999/xlink">
    <title></title>
    <g id="Symbols" stroke="none" stroke-width="1" fill="none" fill-rule="evenodd">
        <g id="Button-/-Red-/-Rounded-Copy-3" transform="translate(-139.000000, -22.000000)" fill="#FFFFFF" fill-rule="nonzero">
            <path d="M144.619282,31 C144.766073,31 144.895596,30.945122 145.007848,30.8353659 L145.007848,30.8353659 L148.841702,26.9253049 C148.96259,26.8064024 149.023033,26.6623476 149.023033,26.4931402 C149.023033,26.3239329 148.96259,26.179878 148.841702,26.0609756 L148.841702,26.0609756 L145.033752,22.1646341 C144.912865,22.054878 144.774708,22 144.619282,22 C144.463855,22 144.332174,22.0617378 144.224239,22.1852134 C144.116304,22.308689 144.062337,22.4527439 144.062337,22.617378 C144.062337,22.7820122 144.12278,22.9237805 144.243668,23.0426829 L144.243668,23.0426829 L147.041345,25.8963415 L139.606776,25.8963415 C139.442715,25.8963415 139.302399,25.9603659 139.185829,26.0884146 C139.069259,26.2164634 139.015292,26.367378 139.023927,26.5411585 C139.032561,26.6966463 139.093005,26.8292683 139.205258,26.9390244 C139.31751,27.0487805 139.447032,27.1036585 139.593824,27.1036585 L139.593824,27.1036585 L147.015441,27.1036585 L144.217763,29.9573171 C144.105511,30.0762195 144.047226,30.2179878 144.042908,30.382622 C144.038591,30.5472561 144.092558,30.6890244 144.204811,30.8079268 C144.317063,30.9359756 144.45522,31 144.619282,31 Z" id=""></path>
        </g>
    </g>
</svg>