<?xml version="1.0" encoding="UTF-8"?>
<svg width="19px" height="12px" viewBox="0 0 19 12" version="1.1" xmlns="http://www.w3.org/2000/svg" xmlns:xlink="http://www.w3.org/1999/xlink">
    <title>arrow_up</title>
    <g id="Symbols" stroke="none" stroke-width="1" fill="none" fill-rule="evenodd">
        <g id="Footer-/-No-message" transform="translate(-1371.000000, -458.000000)" fill="#FFFFFF" fill-rule="nonzero">
            <g id="Group-29" transform="translate(1350.000000, 436.000000)">
                <path d="M37.9285925,33.1964228 C38.089307,33.1964228 38.2321643,33.1249942 38.3393073,33.0178512 L39.2321655,32.124993 C39.3393085,32.01785 39.4107372,31.8571355 39.4107372,31.7142782 C39.4107372,31.5714209 39.3393085,31.4107064 39.2321655,31.3035634 L30.910727,22.982125 C30.8035841,22.874982 30.6428696,22.8035533 30.5000123,22.8035533 C30.3571549,22.8035533 30.1964405,22.874982 30.0892975,22.982125 L21.767859,31.3035634 C21.660716,31.4107064 21.5892874,31.5714209 21.5892874,31.7142782 C21.5892874,31.8571355 21.660716,32.01785 21.767859,32.124993 L22.6607172,33.0178512 C22.7678602,33.1249942 22.9285747,33.1964228 23.071432,33.1964228 C23.2142893,33.1964228 23.3750038,33.1249942 23.4821468,33.0178512 L30.5000123,25.9999857 L37.5178778,33.0178512 C37.6250208,33.1249942 37.7857352,33.1964228 37.9285925,33.1964228 Z" id="arrow_up"></path>
            </g>
        </g>
    </g>
</svg>