<?xml version="1.0" encoding="UTF-8"?>
<svg width="8px" height="13px" viewBox="0 0 8 13" version="1.1" xmlns="http://www.w3.org/2000/svg" xmlns:xlink="http://www.w3.org/1999/xlink">
    <title>arrow-r-color</title>
    <g id="Design" stroke="none" stroke-width="1" fill="none" fill-rule="evenodd">
        <g id="Interior-1" transform="translate(-1263.000000, -5945.000000)" fill="#FF5E5E">
            <path d="M1270.68783,5950.8355 C1270.89594,5951.02114 1271,5951.24475 1271,5951.50633 C1271,5951.76791 1270.89594,5951.99152 1270.68783,5952.17716 L1264.57448,5957.77162 C1264.38371,5957.94038 1264.15825,5958.02054 1263.89811,5958.0121 C1263.63797,5958.00367 1263.42118,5957.90663 1263.24775,5957.72099 C1263.07433,5957.53535 1262.99195,5957.31596 1263.00062,5957.06282 C1263.00929,5956.80967 1263.10901,5956.59872 1263.29978,5956.42996 L1266.00062,5951.51898 L1263.29978,5946.58269 C1263.10901,5946.41393 1263.00929,5946.20298 1263.00062,5945.94984 C1262.99195,5945.69669 1263.07433,5945.4773 1263.24775,5945.29166 C1263.42118,5945.10603 1263.63797,5945.00899 1263.89811,5945.00055 C1264.15825,5944.99211 1264.38371,5945.08071 1264.57448,5945.26635 L1270.68783,5950.8355 Z" id="arrow-r-color"></path>
        </g>
    </g>
</svg>