<?xml version="1.0" encoding="UTF-8"?>
<svg width="7px" height="12px" viewBox="0 0 7 12" version="1.1" xmlns="http://www.w3.org/2000/svg" xmlns:xlink="http://www.w3.org/1999/xlink">
    <title>arrow-l-color</title>
    <g id="Design" stroke="none" stroke-width="1" fill="none" fill-rule="evenodd">
        <g id="Interior-1" transform="translate(-576.000000, -5945.000000)" fill="#FF5E5E">
            <path d="M582.72685,5950.38661 C582.908951,5950.55797 583,5950.76438 583,5951.00584 C583,5951.2473 582.908951,5951.45371 582.72685,5951.62507 L577.377671,5956.78919 C577.210746,5956.94497 577.013473,5957.01896 576.785847,5957.01117 C576.558221,5957.00338 576.368536,5956.91381 576.216785,5956.74245 C576.065035,5956.57109 575.992954,5956.36858 576.000542,5956.13491 C576.008129,5955.90124 576.095385,5955.70651 576.26231,5955.55073 L578.000542,5951.01752 L576.26231,5946.46095 C576.095385,5946.30517 576.008129,5946.11044 576.000542,5945.87677 C575.992954,5945.6431 576.065035,5945.44059 576.216785,5945.26923 C576.368536,5945.09787 576.558221,5945.0083 576.785847,5945.00051 C577.013473,5944.99272 577.210746,5945.0745 577.377671,5945.24586 L582.72685,5950.38661 Z" id="arrow-l-color" transform="translate(579.500000, 5951.005865) scale(-1, 1) translate(-579.500000, -5951.005865) "></path>
        </g>
    </g>
</svg>