<?xml version="1.0" encoding="UTF-8"?>
<svg width="41px" height="41px" viewBox="0 0 41 41" version="1.1" xmlns="http://www.w3.org/2000/svg" xmlns:xlink="http://www.w3.org/1999/xlink">
    <title>arrow-r</title>
    <g id="Design" stroke="none" stroke-width="1" fill="none" fill-rule="evenodd">
        <g id="Home" transform="translate(-208.000000, -679.000000)" fill="#AF99EB">
            <g id="arrows" transform="translate(158.000000, 679.000000)">
                <path d="M63.0588933,3.41531984 C60.9043371,4.34455959 58.9952652,5.64274271 57.3316206,7.30990814 C55.6679759,8.97707356 54.3861705,10.8765204 53.486166,13.0083057 C52.5316158,15.2494134 52.0543478,17.5929755 52.0543478,20.0390625 C52.0543478,22.4851495 52.5316158,24.8287116 53.486166,27.0698193 C54.3861705,29.2016046 55.6679759,31.1010514 57.3316206,32.7682169 C58.9952652,34.4353823 60.9043371,35.7335654 63.0588933,36.6628052 C65.2952681,37.5920449 67.6338811,38.0566578 70.0748024,38.0566578 C72.5157237,38.0566578 74.8407004,37.5920449 77.0498024,36.6628052 C79.2043586,35.7335654 81.1134304,34.4353823 82.7770751,32.7682169 C84.4407198,31.1010514 85.7225251,29.2016046 86.6225296,27.0698193 C87.5770799,24.8287116 88.0543478,22.4851495 88.0543478,20.0390625 C88.0543478,17.5929755 87.5770799,15.2494134 86.6225296,13.0083057 C85.7225251,10.8765204 84.4407198,8.97707356 82.7770751,7.30990814 C81.1134304,5.64274271 79.2043586,4.34455959 77.0498024,3.41531984 C74.8134276,2.4860801 72.4748146,2.02146719 70.0338933,2.02146719 C67.592972,2.02146719 65.2679952,2.4860801 63.0588933,3.41531984 Z M70.0543478,0.0390625 C72.7626947,0.0390625 75.3538146,0.566916459 77.8277853,1.62264021 C80.301756,2.67836397 82.4241306,4.09900795 84.1949728,5.8846148 C85.965815,7.67022164 87.3850717,9.79467091 88.4527853,12.2580263 C89.520499,14.7213818 90.0543478,17.3150345 90.0543478,20.0390625 C90.0543478,22.7630905 89.520499,25.3567432 88.4527853,27.8200987 C87.3850717,30.2834541 85.965815,32.4079034 84.1949728,34.1935102 C82.4241306,35.979117 80.301756,37.399761 77.8277853,38.4554848 C75.3538146,39.5112085 72.7626947,40.0390625 70.0543478,40.0390625 C67.346001,40.0390625 64.754881,39.5112085 62.2809103,38.4554848 C59.8069396,37.399761 57.684565,35.979117 55.9137228,34.1935102 C54.1428806,32.4079034 52.723624,30.2834541 51.6559103,27.8200987 C50.5881967,25.3567432 50.0543478,22.7630905 50.0543478,20.0390625 C50.0543478,17.3150345 50.5881967,14.7213818 51.6559103,12.2580263 C52.723624,9.79467091 54.1428806,7.67022164 55.9137228,5.8846148 C57.684565,4.09900795 59.8069396,2.67836397 62.2809103,1.62264021 C64.754881,0.566916459 67.346001,0.0390625 70.0543478,0.0390625 Z M74.7421769,19.8882462 C74.9502919,20.0738854 75.0543478,20.2974929 75.0543478,20.5590754 C75.0543478,20.8206579 74.9502919,21.0442654 74.7421769,21.2299046 L68.6288291,26.8243668 C68.438057,26.9931297 68.2126025,27.0732909 67.9524587,27.0648527 C67.6923149,27.0564146 67.4755317,26.9593774 67.3021026,26.7737382 C67.1286734,26.588099 67.0462958,26.3687105 67.0549672,26.1155662 C67.0636387,25.8624218 67.163359,25.6514713 67.3541311,25.4827084 L70.0549672,20.5717325 L67.3541311,15.6354424 C67.163359,15.4666795 67.0636387,15.255729 67.0549672,15.0025846 C67.0462958,14.7494403 67.1286734,14.5300518 67.3021026,14.3444126 C67.4755317,14.1587734 67.6923149,14.0617362 67.9524587,14.0532981 C68.2126025,14.0448599 68.438057,14.1334591 68.6288291,14.3190983 L74.7421769,19.8882462 Z" id="arrow-r"></path>
            </g>
        </g>
    </g>
</svg>