<?xml version="1.0" encoding="UTF-8"?>
<svg width="7px" height="12px" viewBox="0 0 7 12" version="1.1" xmlns="http://www.w3.org/2000/svg" xmlns:xlink="http://www.w3.org/1999/xlink">
    <title>arrow-l-no-border</title>
    <g id="Design" stroke="none" stroke-width="1" fill="none" fill-rule="evenodd">
        <path d="M6.72685042,5.40029922 C6.90895105,5.57165847 7,5.77806539 7,6.01952615 C7,6.26098692 6.90895105,6.46739383 6.72685042,6.63875309 L1.37767111,11.8028721 C1.21074553,11.9586532 1.01347281,12.0326481 0.78584702,12.0248591 C0.558221231,12.01707 0.368535918,11.9274972 0.216785392,11.756138 C0.0650348657,11.5847787 -0.00704555303,11.3822663 0.000541973287,11.1485945 C0.0081294996,10.9149228 0.0953847434,10.7201993 0.262310322,10.5644182 L2.00054197,6.03120968 L0.262310322,1.47463411 C0.0953847434,1.31885297 0.0081294996,1.12412947 0.000541973287,0.89045776 C-0.00704555303,0.65678605 0.0650348657,0.454273605 0.216785392,0.282914351 C0.368535918,0.111555097 0.558221231,0.0219822852 0.78584702,0.0141932282 C1.01347281,0.00640417122 1.21074553,0.088188043 1.37767111,0.259547297 L6.72685042,5.40029922 Z" id="arrow-l-no-border" fill="#FFFFFF" transform="translate(3.500000, 6.019550) scale(-1, 1) translate(-3.500000, -6.019550) "></path>
    </g>
</svg>