<?xml version="1.0" encoding="UTF-8"?>
<svg width="8px" height="13px" viewBox="0 0 8 13" version="1.1" xmlns="http://www.w3.org/2000/svg" xmlns:xlink="http://www.w3.org/1999/xlink">
    <title>arrow-r-no-border</title>
    <g id="Design" stroke="none" stroke-width="1" fill="none" fill-rule="evenodd">
        <path d="M7.68782905,5.84918371 C7.89594406,6.03482291 8,6.2584304 8,6.52001289 C8,6.78159539 7.89594406,7.00520288 7.68782905,7.19084208 L1.57448127,12.7853043 C1.38370918,12.9540672 1.15825464,13.0342284 0.89811088,13.0257902 C0.637967121,13.0173521 0.421183907,12.9203149 0.247754734,12.7346757 C0.0743255608,12.5490365 -0.0080520606,12.329648 0.000619398042,12.0765037 C0.00929085669,11.8233593 0.109011135,11.6124088 0.299783225,11.4436459 L3.0006194,6.53267005 L0.299783225,1.59637985 C0.109011135,1.42761695 0.00929085669,1.21666649 0.000619398042,0.963522137 C-0.0080520606,0.710377784 0.0743255608,0.490989303 0.247754734,0.305350111 C0.421183907,0.119710919 0.637967121,0.0226737057 0.89811088,0.0142355606 C1.15825464,0.00579741553 1.38370918,0.09439661 1.57448127,0.280035802 L7.68782905,5.84918371 Z" id="arrow-r-no-border" fill="#FFFFFF"></path>
    </g>
</svg>