<?xml version="1.0" encoding="UTF-8"?>
<svg width="41px" height="41px" viewBox="0 0 41 41" version="1.1" xmlns="http://www.w3.org/2000/svg" xmlns:xlink="http://www.w3.org/1999/xlink">
    <title>arrow-l</title>
    <g id="Design" stroke="none" stroke-width="1" fill="none" fill-rule="evenodd">
        <g id="Home" transform="translate(-158.000000, -679.000000)" fill="#AF99EB">
            <g id="arrows" transform="translate(158.000000, 679.000000)">
                <path d="M13.0588933,3.41531984 C10.9043371,4.34455959 8.99526524,5.64274271 7.33162055,7.30990814 C5.66797587,8.97707356 4.38617051,10.8765204 3.48616601,13.0083057 C2.53161578,15.2494134 2.05434783,17.5929755 2.05434783,20.0390625 C2.05434783,22.4851495 2.53161578,24.8287116 3.48616601,27.0698193 C4.38617051,29.2016046 5.66797587,31.1010514 7.33162055,32.7682169 C8.99526524,34.4353823 10.9043371,35.7335654 13.0588933,36.6628052 C15.2952681,37.5920449 17.6338811,38.0566578 20.0748024,38.0566578 C22.5157237,38.0566578 24.8407004,37.5920449 27.0498024,36.6628052 C29.2043586,35.7335654 31.1134304,34.4353823 32.7770751,32.7682169 C34.4407198,31.1010514 35.7225251,29.2016046 36.6225296,27.0698193 C37.5770799,24.8287116 38.0543478,22.4851495 38.0543478,20.0390625 C38.0543478,17.5929755 37.5770799,15.2494134 36.6225296,13.0083057 C35.7225251,10.8765204 34.4407198,8.97707356 32.7770751,7.30990814 C31.1134304,5.64274271 29.2043586,4.34455959 27.0498024,3.41531984 C24.8134276,2.4860801 22.4748146,2.02146719 20.0338933,2.02146719 C17.592972,2.02146719 15.2679952,2.4860801 13.0588933,3.41531984 Z M20.0543478,0.0390625 C22.7626947,0.0390625 25.3538146,0.566916459 27.8277853,1.62264021 C30.301756,2.67836397 32.4241306,4.09900795 34.1949728,5.8846148 C35.965815,7.67022164 37.3850717,9.79467091 38.4527853,12.2580263 C39.520499,14.7213818 40.0543478,17.3150345 40.0543478,20.0390625 C40.0543478,22.7630905 39.520499,25.3567432 38.4527853,27.8200987 C37.3850717,30.2834541 35.965815,32.4079034 34.1949728,34.1935102 C32.4241306,35.979117 30.301756,37.399761 27.8277853,38.4554848 C25.3538146,39.5112085 22.7626947,40.0390625 20.0543478,40.0390625 C17.346001,40.0390625 14.754881,39.5112085 12.2809103,38.4554848 C9.80693962,37.399761 7.68456501,35.979117 5.91372283,34.1935102 C4.14288064,32.4079034 2.723624,30.2834541 1.65591033,27.8200987 C0.588196654,25.3567432 0.0543478261,22.7630905 0.0543478261,20.0390625 C0.0543478261,17.3150345 0.588196654,14.7213818 1.65591033,12.2580263 C2.723624,9.79467091 4.14288064,7.67022164 5.91372283,5.8846148 C7.68456501,4.09900795 9.80693962,2.67836397 12.2809103,1.62264021 C14.754881,0.566916459 17.346001,0.0390625 20.0543478,0.0390625 Z M23.7811982,19.4393617 C23.9632989,19.610721 24.0543478,19.8171279 24.0543478,20.0585887 C24.0543478,20.3000494 23.9632989,20.5064563 23.7811982,20.6778156 L18.4320189,25.8419346 C18.2650934,25.9977157 18.0678206,26.0717106 17.8401948,26.0639216 C17.6125691,26.0561325 17.4228837,25.9665597 17.2711332,25.7952005 C17.1193827,25.6238412 17.0473023,25.4213288 17.0548898,25.187657 C17.0624773,24.9539853 17.1497326,24.7592618 17.3166581,24.6034807 L19.0548898,20.0702722 L17.3166581,15.5136966 C17.1497326,15.3579155 17.0624773,15.163192 17.0548898,14.9295203 C17.0473023,14.6958485 17.1193827,14.4933361 17.2711332,14.3219769 C17.4228837,14.1506176 17.6125691,14.0610448 17.8401948,14.0532557 C18.0678206,14.0454667 18.2650934,14.1272505 18.4320189,14.2986098 L23.7811982,19.4393617 Z" id="arrow-l" transform="translate(20.054348, 20.039062) scale(-1, 1) translate(-20.054348, -20.039062) "></path>
            </g>
        </g>
    </g>
</svg>