<?xml version="1.0" encoding="UTF-8"?>
<svg width="50px" height="50px" viewBox="0 0 50 50" version="1.1" xmlns="http://www.w3.org/2000/svg" xmlns:xlink="http://www.w3.org/1999/xlink">
    <title>button-before-after</title>
    <g id="Design" stroke="none" stroke-width="1" fill="none" fill-rule="evenodd">
        <g id="Interior-1-Copy" transform="translate(-695.000000, -2957.000000)">
            <g id="Group-13" transform="translate(150.000000, 2709.000000)">
                <g id="Group-15" transform="translate(545.000000, 1.000000)">
                    <g id="button-before-after" transform="translate(0.000000, 247.000000)">
                        <circle id="Oval" fill="#FF5E5E" cx="25" cy="25" r="25"></circle>
                        <g id="arrows-before-after" transform="translate(14.000000, 19.000000)" fill="#FFFFFF">
                            <path d="M22.7268504,5.38135361 C22.908951,5.55254552 23,5.75875087 23,5.99997583 C23,6.2412008 22.908951,6.44740614 22.7268504,6.61859806 L17.3776711,11.7776739 C17.2107455,11.933303 17.0134728,12.0072256 16.785847,11.9994442 C16.5582212,11.9916627 16.3685359,11.9021774 16.2167854,11.7309855 C16.0650349,11.5597936 15.9929544,11.3574789 16.000542,11.1240354 C16.0081295,10.8905919 16.0953847,10.6960585 16.2623103,10.5404295 L20.9741406,6.01164795 L16.2623103,1.45952217 C16.0953847,1.30389316 16.0081295,1.10935981 16.000542,0.875916297 C15.9929544,0.642472782 16.0650349,0.440158104 16.2167854,0.268966193 C16.3685359,0.0977742817 16.5582212,0.00828894316 16.785847,0.000507492651 C17.0134728,-0.00727395785 17.2107455,0.0744300469 17.3776711,0.245621958 L22.7268504,5.38135361 Z" id="Path"></path>
                            <path d="M6.72685042,5.38135361 C6.90895105,5.55254552 7,5.75875087 7,5.99997583 C7,6.2412008 6.90895105,6.44740614 6.72685042,6.61859806 L1.37767111,11.7776739 C1.21074553,11.933303 1.01347281,12.0072256 0.78584702,11.9994442 C0.558221231,11.9916627 0.368535918,11.9021774 0.216785392,11.7309855 C0.0650348657,11.5597936 -0.00704555303,11.3574789 0.000541973287,11.1240354 C0.0081294996,10.8905919 0.0953847434,10.6960585 0.262310322,10.5404295 L4.9741406,6.01164795 L0.262310322,1.45952217 C0.0953847434,1.30389316 0.0081294996,1.10935981 0.000541973287,0.875916297 C-0.00704555303,0.642472782 0.0650348657,0.440158104 0.216785392,0.268966193 C0.368535918,0.0977742817 0.558221231,0.00828894316 0.78584702,0.000507492651 C1.01347281,-0.00727395785 1.21074553,0.0744300469 1.37767111,0.245621958 L6.72685042,5.38135361 Z" id="Path" transform="translate(3.500000, 6.000000) scale(-1, 1) translate(-3.500000, -6.000000) "></path>
                        </g>
                    </g>
                </g>
            </g>
        </g>
    </g>
</svg>