<?xml version="1.0" encoding="UTF-8"?>
<svg width="281px" height="198px" viewBox="0 0 281 198" version="1.1" xmlns="http://www.w3.org/2000/svg" xmlns:xlink="http://www.w3.org/1999/xlink">
    <title>icon-quote</title>
    <g id="Design" stroke="none" stroke-width="1" fill="none" fill-rule="evenodd">
        <g id="Card-/-Testimonial-Copy-2" transform="translate(-35.000000, -197.000000)" fill="#F9F9F9" fill-rule="nonzero">
            <path d="M99.4505495,395 C136.604396,395 163.901099,368.549618 163.901099,330.763359 C163.901099,310.358779 155.56044,291.465649 138.879121,280.129771 L173,197 L109.307692,197 L52.4395604,279.374046 C42.5824176,294.48855 35,311.114504 35,330.763359 C35,372.328244 65.3296703,395 99.4505495,395 Z M242.450549,395 C279.604396,395 306.901099,368.549618 306.901099,330.763359 C306.901099,310.358779 298.56044,291.465649 281.879121,280.129771 L316,197 L252.307692,197 L195.43956,279.374046 C185.582418,294.48855 178,311.114504 178,330.763359 C178,372.328244 208.32967,395 242.450549,395 Z" id="icon-quote"></path>
        </g>
    </g>
</svg>